<?xml version="1.0" encoding="UTF-8" standalone="no"?>
<!DOCTYPE svg PUBLIC "-//W3C//DTD SVG 1.1//EN"
 "http://www.w3.org/Graphics/SVG/1.1/DTD/svg11.dtd">
<!-- Generated by graphviz version 2.36.0 (20140111.2315)
 -->
<!-- Title: IBitmapBase Pages: 1 -->
<svg width="360pt" height="256pt"
 viewBox="0.00 0.00 360.00 256.00" xmlns="http://www.w3.org/2000/svg" xmlns:xlink="http://www.w3.org/1999/xlink">
<g id="graph0" class="graph" transform="scale(1 1) rotate(0) translate(4 252)">
<title>IBitmapBase</title>
<polygon fill="white" stroke="none" points="-4,4 -4,-252 356,-252 356,4 -4,4"/>
<!-- Node1 -->
<g id="node1" class="node"><title>Node1</title>
<polygon fill="#bfbfbf" stroke="black" points="0.5,-114.5 0.5,-133.5 73.5,-133.5 73.5,-114.5 0.5,-114.5"/>
<text text-anchor="middle" x="37" y="-121.5" font-family="Helvetica,sans-Serif" font-size="10.00">IBitmapBase</text>
</g>
<!-- Node2 -->
<g id="node2" class="node"><title>Node2</title>
<g id="a_node2"><a xlink:href="class_i_b_button_control.html" target="_top" xlink:title="A bitmap button/momentary switch control. ">
<polygon fill="white" stroke="black" points="113,-228.5 113,-247.5 199,-247.5 199,-228.5 113,-228.5"/>
<text text-anchor="middle" x="156" y="-235.5" font-family="Helvetica,sans-Serif" font-size="10.00">IBButtonControl</text>
</a>
</g>
</g>
<!-- Node1&#45;&gt;Node2 -->
<g id="edge1" class="edge"><title>Node1&#45;&gt;Node2</title>
<path fill="none" stroke="midnightblue" d="M48.0588,-142.591C60.2623,-163.628 82.6387,-197.726 110,-219 114.82,-222.748 120.489,-225.891 126.147,-228.472"/>
<polygon fill="midnightblue" stroke="midnightblue" points="51.0001,-140.681 43.0467,-133.681 44.8992,-144.113 51.0001,-140.681"/>
</g>
<!-- Node3 -->
<g id="node3" class="node"><title>Node3</title>
<g id="a_node3"><a xlink:href="class_i_bitmap_control.html" target="_top" xlink:title="A basic control to draw a bitmap, or one frame of a stacked bitmap depending on the current value...">
<polygon fill="white" stroke="black" points="115,-190.5 115,-209.5 197,-209.5 197,-190.5 115,-190.5"/>
<text text-anchor="middle" x="156" y="-197.5" font-family="Helvetica,sans-Serif" font-size="10.00">IBitmapControl</text>
</a>
</g>
</g>
<!-- Node1&#45;&gt;Node3 -->
<g id="edge2" class="edge"><title>Node1&#45;&gt;Node3</title>
<path fill="none" stroke="midnightblue" d="M56.3992,-140.868C70.374,-153.089 90.4595,-169.43 110,-181 115.838,-184.456 122.421,-187.608 128.715,-190.308"/>
<polygon fill="midnightblue" stroke="midnightblue" points="58.3414,-137.911 48.5472,-133.871 53.6842,-143.137 58.3414,-137.911"/>
</g>
<!-- Node5 -->
<g id="node5" class="node"><title>Node5</title>
<g id="a_node5"><a xlink:href="class_i_b_knob_control.html" target="_top" xlink:title="A bitmap knob/dial control that draws a frame from a stacked bitmap. ">
<polygon fill="white" stroke="black" points="116,-152.5 116,-171.5 196,-171.5 196,-152.5 116,-152.5"/>
<text text-anchor="middle" x="156" y="-159.5" font-family="Helvetica,sans-Serif" font-size="10.00">IBKnobControl</text>
</a>
</g>
</g>
<!-- Node1&#45;&gt;Node5 -->
<g id="edge4" class="edge"><title>Node1&#45;&gt;Node5</title>
<path fill="none" stroke="midnightblue" d="M77.0424,-136.68C92.8509,-141.815 110.799,-147.644 125.485,-152.414"/>
<polygon fill="midnightblue" stroke="midnightblue" points="78.1162,-133.349 67.524,-133.589 75.9538,-140.007 78.1162,-133.349"/>
</g>
<!-- Node7 -->
<g id="node7" class="node"><title>Node7</title>
<g id="a_node7"><a xlink:href="class_i_b_slider_control.html" target="_top" xlink:title="A bitmap slider/fader control. ">
<polygon fill="white" stroke="black" points="114.5,-114.5 114.5,-133.5 197.5,-133.5 197.5,-114.5 114.5,-114.5"/>
<text text-anchor="middle" x="156" y="-121.5" font-family="Helvetica,sans-Serif" font-size="10.00">IBSliderControl</text>
</a>
</g>
</g>
<!-- Node1&#45;&gt;Node7 -->
<g id="edge6" class="edge"><title>Node1&#45;&gt;Node7</title>
<path fill="none" stroke="midnightblue" d="M83.905,-124C93.8879,-124 104.385,-124 114.156,-124"/>
<polygon fill="midnightblue" stroke="midnightblue" points="83.7396,-120.5 73.7396,-124 83.7396,-127.5 83.7396,-120.5"/>
</g>
<!-- Node8 -->
<g id="node8" class="node"><title>Node8</title>
<g id="a_node8"><a xlink:href="class_i_b_text_control.html" target="_top" xlink:title="A control to display text using a monospace bitmap font. ">
<polygon fill="white" stroke="black" points="117.5,-76.5 117.5,-95.5 194.5,-95.5 194.5,-76.5 117.5,-76.5"/>
<text text-anchor="middle" x="156" y="-83.5" font-family="Helvetica,sans-Serif" font-size="10.00">IBTextControl</text>
</a>
</g>
</g>
<!-- Node1&#45;&gt;Node8 -->
<g id="edge7" class="edge"><title>Node1&#45;&gt;Node8</title>
<path fill="none" stroke="midnightblue" d="M77.0424,-111.32C92.8509,-106.185 110.799,-100.356 125.485,-95.5859"/>
<polygon fill="midnightblue" stroke="midnightblue" points="75.9538,-107.993 67.524,-114.411 78.1162,-114.651 75.9538,-107.993"/>
</g>
<!-- Node9 -->
<g id="node9" class="node"><title>Node9</title>
<g id="a_node9"><a xlink:href="class_test_blend_control.html" target="_top" xlink:title="Control to test blend methods. ">
<polygon fill="white" stroke="black" points="110,-38.5 110,-57.5 202,-57.5 202,-38.5 110,-38.5"/>
<text text-anchor="middle" x="156" y="-45.5" font-family="Helvetica,sans-Serif" font-size="10.00">TestBlendControl</text>
</a>
</g>
</g>
<!-- Node1&#45;&gt;Node9 -->
<g id="edge8" class="edge"><title>Node1&#45;&gt;Node9</title>
<path fill="none" stroke="midnightblue" d="M56.3992,-107.132C70.374,-94.9105 90.4595,-78.5696 110,-67 115.838,-63.5436 122.421,-60.3919 128.715,-57.6922"/>
<polygon fill="midnightblue" stroke="midnightblue" points="53.6842,-104.863 48.5472,-114.129 58.3414,-110.089 53.6842,-104.863"/>
</g>
<!-- Node10 -->
<g id="node10" class="node"><title>Node10</title>
<g id="a_node10"><a xlink:href="class_test_m_p_s_control.html" target="_top" xlink:title="Control to test IGraphicsNanoVG with Metal Performance Shaders. ">
<polygon fill="white" stroke="black" points="111.5,-0.5 111.5,-19.5 200.5,-19.5 200.5,-0.5 111.5,-0.5"/>
<text text-anchor="middle" x="156" y="-7.5" font-family="Helvetica,sans-Serif" font-size="10.00">TestMPSControl</text>
</a>
</g>
</g>
<!-- Node1&#45;&gt;Node10 -->
<g id="edge9" class="edge"><title>Node1&#45;&gt;Node10</title>
<path fill="none" stroke="midnightblue" d="M48.0588,-105.409C60.2623,-84.3716 82.6387,-50.2742 110,-29 114.82,-25.2521 120.489,-22.1095 126.147,-19.5281"/>
<polygon fill="midnightblue" stroke="midnightblue" points="44.8992,-103.887 43.0467,-114.319 51.0001,-107.319 44.8992,-103.887"/>
</g>
<!-- Node4 -->
<g id="node4" class="node"><title>Node4</title>
<g id="a_node4"><a xlink:href="class_i_b_switch_control.html" target="_top" xlink:title="A bitmap switch control. ">
<polygon fill="white" stroke="black" points="251,-190.5 251,-209.5 339,-209.5 339,-190.5 251,-190.5"/>
<text text-anchor="middle" x="295" y="-197.5" font-family="Helvetica,sans-Serif" font-size="10.00">IBSwitchControl</text>
</a>
</g>
</g>
<!-- Node3&#45;&gt;Node4 -->
<g id="edge3" class="edge"><title>Node3&#45;&gt;Node4</title>
<path fill="none" stroke="midnightblue" d="M207.44,-200C221.6,-200 236.869,-200 250.582,-200"/>
<polygon fill="midnightblue" stroke="midnightblue" points="207.364,-196.5 197.364,-200 207.363,-203.5 207.364,-196.5"/>
</g>
<!-- Node6 -->
<g id="node6" class="node"><title>Node6</title>
<g id="a_node6"><a xlink:href="class_i_b_knob_rotater_control.html" target="_top" xlink:title="A bitmap knob/dial control that rotates an image. ">
<polygon fill="white" stroke="black" points="238.5,-152.5 238.5,-171.5 351.5,-171.5 351.5,-152.5 238.5,-152.5"/>
<text text-anchor="middle" x="295" y="-159.5" font-family="Helvetica,sans-Serif" font-size="10.00">IBKnobRotaterControl</text>
</a>
</g>
</g>
<!-- Node5&#45;&gt;Node6 -->
<g id="edge5" class="edge"><title>Node5&#45;&gt;Node6</title>
<path fill="none" stroke="midnightblue" d="M206.394,-162C216.781,-162 227.805,-162 238.402,-162"/>
<polygon fill="midnightblue" stroke="midnightblue" points="206.259,-158.5 196.259,-162 206.259,-165.5 206.259,-158.5"/>
</g>
</g>
</svg>
