<?xml version="1.0" encoding="UTF-8" standalone="no"?>
<!DOCTYPE svg PUBLIC "-//W3C//DTD SVG 1.1//EN"
 "http://www.w3.org/Graphics/SVG/1.1/DTD/svg11.dtd">
<!-- Generated by graphviz version 2.36.0 (20140111.2315)
 -->
<!-- Title: IControl Pages: 1 -->
<svg width="406pt" height="1256pt"
 viewBox="0.00 0.00 406.00 1256.00" xmlns="http://www.w3.org/2000/svg" xmlns:xlink="http://www.w3.org/1999/xlink">
<g id="graph0" class="graph" transform="scale(1 1) rotate(0) translate(4 1252)">
<title>IControl</title>
<polygon fill="white" stroke="none" points="-4,4 -4,-1252 402,-1252 402,4 -4,4"/>
<!-- Node1 -->
<g id="node1" class="node"><title>Node1</title>
<polygon fill="#bfbfbf" stroke="black" points="0.5,-620.5 0.5,-639.5 51.5,-639.5 51.5,-620.5 0.5,-620.5"/>
<text text-anchor="middle" x="26" y="-627.5" font-family="Helvetica,sans-Serif" font-size="10.00">IControl</text>
</g>
<!-- Node2 -->
<g id="node2" class="node"><title>Node2</title>
<g id="a_node2"><a xlink:href="class_g_f_x_label_control.html" target="_top" xlink:title="Control to display the graphics backend. ">
<polygon fill="white" stroke="black" points="112,-1228.5 112,-1247.5 204,-1247.5 204,-1228.5 112,-1228.5"/>
<text text-anchor="middle" x="158" y="-1235.5" font-family="Helvetica,sans-Serif" font-size="10.00">GFXLabelControl</text>
</a>
</g>
</g>
<!-- Node1&#45;&gt;Node2 -->
<g id="edge1" class="edge"><title>Node1&#45;&gt;Node2</title>
<path fill="none" stroke="midnightblue" d="M27.7432,-649.852C31.5734,-747.57 50.3756,-1174.57 88,-1219 94.1024,-1226.21 102.663,-1230.81 111.684,-1233.72"/>
<polygon fill="midnightblue" stroke="midnightblue" points="31.2398,-649.696 27.3584,-639.837 24.245,-649.964 31.2398,-649.696"/>
</g>
<!-- Node3 -->
<g id="node3" class="node"><title>Node3</title>
<g id="a_node3"><a xlink:href="class_i_bitmap_control.html" target="_top" xlink:title="A basic control to draw a bitmap, or one frame of a stacked bitmap depending on the current value...">
<polygon fill="white" stroke="black" points="117,-1190.5 117,-1209.5 199,-1209.5 199,-1190.5 117,-1190.5"/>
<text text-anchor="middle" x="158" y="-1197.5" font-family="Helvetica,sans-Serif" font-size="10.00">IBitmapControl</text>
</a>
</g>
</g>
<!-- Node1&#45;&gt;Node3 -->
<g id="edge2" class="edge"><title>Node1&#45;&gt;Node3</title>
<path fill="none" stroke="midnightblue" d="M27.8866,-649.729C32.263,-743.316 52.7765,-1139.7 88,-1181 95.2567,-1189.51 105.939,-1194.38 116.742,-1197.13"/>
<polygon fill="midnightblue" stroke="midnightblue" points="31.3788,-649.475 27.4234,-639.646 24.3862,-649.797 31.3788,-649.475"/>
</g>
<!-- Node5 -->
<g id="node5" class="node"><title>Node5</title>
<g id="a_node5"><a xlink:href="class_i_button_control_base.html" target="_top" xlink:title="A base class for buttons/momentary switches &#45; cannot be linked to parameters. ">
<polygon fill="white" stroke="black" points="107,-1152.5 107,-1171.5 209,-1171.5 209,-1152.5 107,-1152.5"/>
<text text-anchor="middle" x="158" y="-1159.5" font-family="Helvetica,sans-Serif" font-size="10.00">IButtonControlBase</text>
</a>
</g>
</g>
<!-- Node1&#45;&gt;Node5 -->
<g id="edge4" class="edge"><title>Node1&#45;&gt;Node5</title>
<path fill="none" stroke="midnightblue" d="M28.0744,-650.048C33.0756,-740.148 55.2269,-1104.89 88,-1143 93.0227,-1148.84 99.6597,-1152.97 106.835,-1155.87"/>
<polygon fill="midnightblue" stroke="midnightblue" points="31.5567,-649.627 27.5161,-639.833 24.5672,-650.009 31.5567,-649.627"/>
</g>
<!-- Node8 -->
<g id="node8" class="node"><title>Node8</title>
<g id="a_node8"><a xlink:href="class_i_color_picker_control.html" target="_top" xlink:title="A control for choosing a color. ">
<polygon fill="white" stroke="black" points="107,-1114.5 107,-1133.5 209,-1133.5 209,-1114.5 107,-1114.5"/>
<text text-anchor="middle" x="158" y="-1121.5" font-family="Helvetica,sans-Serif" font-size="10.00">IColorPickerControl</text>
</a>
</g>
</g>
<!-- Node1&#45;&gt;Node8 -->
<g id="edge7" class="edge"><title>Node1&#45;&gt;Node8</title>
<path fill="none" stroke="midnightblue" d="M26.7327,-650.179C26.0693,-731.69 27.7392,-1035.58 88,-1105 93.05,-1110.82 99.7011,-1114.93 106.882,-1117.83"/>
<polygon fill="midnightblue" stroke="midnightblue" points="30.2362,-649.857 26.8408,-639.821 23.2365,-649.784 30.2362,-649.857"/>
</g>
<!-- Node9 -->
<g id="node9" class="node"><title>Node9</title>
<g id="a_node9"><a xlink:href="class_i_corner_resizer_control.html" target="_top" xlink:title="A control for resizing the plug&#45;in window by clicking and dragging in the bottom right&#45;hand corner Th...">
<polygon fill="white" stroke="black" points="101,-1076.5 101,-1095.5 215,-1095.5 215,-1076.5 101,-1076.5"/>
<text text-anchor="middle" x="158" y="-1083.5" font-family="Helvetica,sans-Serif" font-size="10.00">ICornerResizerControl</text>
</a>
</g>
</g>
<!-- Node1&#45;&gt;Node9 -->
<g id="edge8" class="edge"><title>Node1&#45;&gt;Node9</title>
<path fill="none" stroke="midnightblue" d="M26.9831,-650.031C27.3291,-727.157 32.4833,-1003.75 88,-1067 91.6065,-1071.11 96.0116,-1074.37 100.834,-1076.94"/>
<polygon fill="midnightblue" stroke="midnightblue" points="30.4827,-649.779 26.9617,-639.786 23.4827,-649.794 30.4827,-649.779"/>
</g>
<!-- Node10 -->
<g id="node10" class="node"><title>Node10</title>
<g id="a_node10"><a xlink:href="class_i_dir_browse_control_base.html" target="_top" xlink:title="An abstract IControl base class that you can inherit from in order to make a control that pops up a m...">
<polygon fill="white" stroke="black" points="98.5,-1038.5 98.5,-1057.5 217.5,-1057.5 217.5,-1038.5 98.5,-1038.5"/>
<text text-anchor="middle" x="158" y="-1045.5" font-family="Helvetica,sans-Serif" font-size="10.00">IDirBrowseControlBase</text>
</a>
</g>
</g>
<!-- Node1&#45;&gt;Node10 -->
<g id="edge9" class="edge"><title>Node1&#45;&gt;Node10</title>
<path fill="none" stroke="midnightblue" d="M27.2716,-649.672C28.6708,-721.985 37.1649,-971.84 88,-1029 91.3854,-1032.81 95.4563,-1035.88 99.9063,-1038.36"/>
<polygon fill="midnightblue" stroke="midnightblue" points="30.7708,-649.587 27.1026,-639.648 23.7718,-649.705 30.7708,-649.587"/>
</g>
<!-- Node12 -->
<g id="node12" class="node"><title>Node12</title>
<g id="a_node12"><a xlink:href="class_i_f_p_s_display_control.html" target="_top" xlink:title="Performance display meter, based on code from NanoVG This is a special control that lives outside the...">
<polygon fill="white" stroke="black" points="106,-1000.5 106,-1019.5 210,-1019.5 210,-1000.5 106,-1000.5"/>
<text text-anchor="middle" x="158" y="-1007.5" font-family="Helvetica,sans-Serif" font-size="10.00">IFPSDisplayControl</text>
</a>
</g>
</g>
<!-- Node1&#45;&gt;Node12 -->
<g id="edge11" class="edge"><title>Node1&#45;&gt;Node12</title>
<path fill="none" stroke="midnightblue" d="M27.6316,-649.952C30.1913,-718.073 41.9784,-940.063 88,-991 92.8312,-996.347 99.0151,-1000.25 105.691,-1003.08"/>
<polygon fill="midnightblue" stroke="midnightblue" points="31.1218,-649.609 27.2751,-639.737 24.1261,-649.853 31.1218,-649.609"/>
</g>
<!-- Node13 -->
<g id="node13" class="node"><title>Node13</title>
<g id="a_node13"><a xlink:href="class_i_graphics_live_edit.html" target="_top" xlink:title="A control to enable live modification of control layout in an IGraphics context in debug builds This ...">
<polygon fill="white" stroke="black" points="111,-962.5 111,-981.5 205,-981.5 205,-962.5 111,-962.5"/>
<text text-anchor="middle" x="158" y="-969.5" font-family="Helvetica,sans-Serif" font-size="10.00">IGraphicsLiveEdit</text>
</a>
</g>
</g>
<!-- Node1&#45;&gt;Node13 -->
<g id="edge12" class="edge"><title>Node1&#45;&gt;Node13</title>
<path fill="none" stroke="midnightblue" d="M28.0622,-649.869C31.8408,-713.103 46.6877,-908.151 88,-953 94.061,-959.58 102.171,-963.962 110.697,-966.861"/>
<polygon fill="midnightblue" stroke="midnightblue" points="31.5439,-649.447 27.4816,-639.662 24.5552,-649.844 31.5439,-649.447"/>
</g>
<!-- Node14 -->
<g id="node14" class="node"><title>Node14</title>
<g id="a_node14"><a xlink:href="class_i_knob_control_base.html" target="_top" xlink:title="A base class for knob/dial controls, to handle mouse action and ballistics. ">
<polygon fill="white" stroke="red" points="110,-924.5 110,-943.5 206,-943.5 206,-924.5 110,-924.5"/>
<text text-anchor="middle" x="158" y="-931.5" font-family="Helvetica,sans-Serif" font-size="10.00">IKnobControlBase</text>
</a>
</g>
</g>
<!-- Node1&#45;&gt;Node14 -->
<g id="edge13" class="edge"><title>Node1&#45;&gt;Node14</title>
<path fill="none" stroke="midnightblue" d="M28.6,-649.776C33.6897,-707.84 51.371,-876.188 88,-915 93.8844,-921.235 101.609,-925.489 109.755,-928.378"/>
<polygon fill="midnightblue" stroke="midnightblue" points="32.0786,-649.373 27.748,-639.704 25.1035,-649.964 32.0786,-649.373"/>
</g>
<!-- Node26 -->
<g id="node26" class="node"><title>Node26</title>
<g id="a_node26"><a xlink:href="class_i_lambda_control.html" target="_top" xlink:title="A control that can be specialised with a lambda function, for quick experiments without making a cust...">
<polygon fill="white" stroke="black" points="115,-886.5 115,-905.5 201,-905.5 201,-886.5 115,-886.5"/>
<text text-anchor="middle" x="158" y="-893.5" font-family="Helvetica,sans-Serif" font-size="10.00">ILambdaControl</text>
</a>
</g>
</g>
<!-- Node1&#45;&gt;Node26 -->
<g id="edge25" class="edge"><title>Node1&#45;&gt;Node26</title>
<path fill="none" stroke="midnightblue" d="M29.316,-649.862C35.8508,-702.571 56.0616,-844.201 88,-877 95.1947,-884.389 104.977,-888.983 114.913,-891.819"/>
<polygon fill="midnightblue" stroke="midnightblue" points="32.7716,-649.282 28.0992,-639.773 25.822,-650.121 32.7716,-649.282"/>
</g>
<!-- Node27 -->
<g id="node27" class="node"><title>Node27</title>
<g id="a_node27"><a xlink:href="class_i_panel_control.html" target="_top" xlink:title="A basic control to fill a rectangle with a color or gradient. ">
<polygon fill="white" stroke="black" points="120,-848.5 120,-867.5 196,-867.5 196,-848.5 120,-848.5"/>
<text text-anchor="middle" x="158" y="-855.5" font-family="Helvetica,sans-Serif" font-size="10.00">IPanelControl</text>
</a>
</g>
</g>
<!-- Node1&#45;&gt;Node27 -->
<g id="edge26" class="edge"><title>Node1&#45;&gt;Node27</title>
<path fill="none" stroke="midnightblue" d="M26.7685,-649.587C27.3893,-690.726 34.8281,-786.634 88,-839 96.4986,-847.37 108.326,-852.134 119.791,-854.82"/>
<polygon fill="midnightblue" stroke="midnightblue" points="30.2684,-649.508 26.7418,-639.517 23.2684,-649.526 30.2684,-649.508"/>
</g>
<!-- Node28 -->
<g id="node28" class="node"><title>Node28</title>
<g id="a_node28"><a xlink:href="class_i_popup_menu_control.html" target="_top" xlink:title="A base control for a pop&#45;up menu/drop&#45;down list that stays within the bounds of the IGraphics context...">
<polygon fill="white" stroke="black" points="106.5,-810.5 106.5,-829.5 209.5,-829.5 209.5,-810.5 106.5,-810.5"/>
<text text-anchor="middle" x="158" y="-817.5" font-family="Helvetica,sans-Serif" font-size="10.00">IPopupMenuControl</text>
</a>
</g>
</g>
<!-- Node1&#45;&gt;Node28 -->
<g id="edge27" class="edge"><title>Node1&#45;&gt;Node28</title>
<path fill="none" stroke="midnightblue" d="M28.3011,-649.889C31.7201,-685.484 44.0254,-760.163 88,-801 93.2807,-805.904 99.7103,-809.561 106.497,-812.285"/>
<polygon fill="midnightblue" stroke="midnightblue" points="31.7793,-649.479 27.4744,-639.798 24.8027,-650.051 31.7793,-649.479"/>
</g>
<!-- Node29 -->
<g id="node29" class="node"><title>Node29</title>
<g id="a_node29"><a xlink:href="class_i_slider_control_base.html" target="_top" xlink:title="A base class for slider/fader controls, to handle mouse action and ballistics. ">
<polygon fill="white" stroke="red" points="109,-772.5 109,-791.5 207,-791.5 207,-772.5 109,-772.5"/>
<text text-anchor="middle" x="158" y="-779.5" font-family="Helvetica,sans-Serif" font-size="10.00">ISliderControlBase</text>
</a>
</g>
</g>
<!-- Node1&#45;&gt;Node29 -->
<g id="edge28" class="edge"><title>Node1&#45;&gt;Node29</title>
<path fill="none" stroke="midnightblue" d="M30.6227,-649.899C36.9874,-679.075 52.9782,-733.217 88,-763 93.963,-768.071 101.17,-771.797 108.647,-774.533"/>
<polygon fill="midnightblue" stroke="midnightblue" points="33.9777,-648.829 28.575,-639.716 27.1151,-650.209 33.9777,-648.829"/>
</g>
<!-- Node30 -->
<g id="node30" class="node"><title>Node30</title>
<g id="a_node30"><a xlink:href="class_i_s_v_g_control.html" target="_top" xlink:title="A basic control to draw an SVG image to the screen. ">
<polygon fill="white" stroke="black" points="122,-734.5 122,-753.5 194,-753.5 194,-734.5 122,-734.5"/>
<text text-anchor="middle" x="158" y="-741.5" font-family="Helvetica,sans-Serif" font-size="10.00">ISVGControl</text>
</a>
</g>
</g>
<!-- Node1&#45;&gt;Node30 -->
<g id="edge29" class="edge"><title>Node1&#45;&gt;Node30</title>
<path fill="none" stroke="midnightblue" d="M34.3361,-649.204C43.5855,-670.845 61.5439,-705.534 88,-725 97.8077,-732.216 110.218,-736.692 121.801,-739.468"/>
<polygon fill="midnightblue" stroke="midnightblue" points="37.5028,-647.7 30.496,-639.753 31.0176,-650.335 37.5028,-647.7"/>
</g>
<!-- Node31 -->
<g id="node31" class="node"><title>Node31</title>
<g id="a_node31"><a xlink:href="class_i_switch_control_base.html" target="_top" xlink:title="A base class for switch controls. ">
<polygon fill="white" stroke="red" points="106,-696.5 106,-715.5 210,-715.5 210,-696.5 106,-696.5"/>
<text text-anchor="middle" x="158" y="-703.5" font-family="Helvetica,sans-Serif" font-size="10.00">ISwitchControlBase</text>
</a>
</g>
</g>
<!-- Node1&#45;&gt;Node31 -->
<g id="edge30" class="edge"><title>Node1&#45;&gt;Node31</title>
<path fill="none" stroke="midnightblue" d="M41.2629,-647.233C52.6729,-659.96 69.7381,-676.782 88,-687 94.8312,-690.822 102.479,-693.914 110.128,-696.403"/>
<polygon fill="midnightblue" stroke="midnightblue" points="43.8188,-644.838 34.6258,-639.571 38.5279,-649.421 43.8188,-644.838"/>
</g>
<!-- Node32 -->
<g id="node32" class="node"><title>Node32</title>
<g id="a_node32"><a xlink:href="class_i_text_control.html" target="_top" xlink:title="A basic control to display some text. ">
<polygon fill="white" stroke="red" points="122.5,-658.5 122.5,-677.5 193.5,-677.5 193.5,-658.5 122.5,-658.5"/>
<text text-anchor="middle" x="158" y="-665.5" font-family="Helvetica,sans-Serif" font-size="10.00">ITextControl</text>
</a>
</g>
</g>
<!-- Node1&#45;&gt;Node32 -->
<g id="edge31" class="edge"><title>Node1&#45;&gt;Node32</title>
<path fill="none" stroke="midnightblue" d="M61.3875,-640.93C70.056,-643.625 79.3554,-646.464 88,-649 99.0881,-652.252 111.226,-655.649 122.188,-658.656"/>
<polygon fill="midnightblue" stroke="midnightblue" points="62.1672,-637.507 51.5782,-637.86 60.0761,-644.187 62.1672,-637.507"/>
</g>
<!-- Node33 -->
<g id="node33" class="node"><title>Node33</title>
<g id="a_node33"><a xlink:href="class_i_text_entry_control.html" target="_top" xlink:title="A Text entry widget drawn by IGraphics. ">
<polygon fill="white" stroke="black" points="111,-620.5 111,-639.5 205,-639.5 205,-620.5 111,-620.5"/>
<text text-anchor="middle" x="158" y="-627.5" font-family="Helvetica,sans-Serif" font-size="10.00">ITextEntryControl</text>
</a>
</g>
</g>
<!-- Node1&#45;&gt;Node33 -->
<g id="edge32" class="edge"><title>Node1&#45;&gt;Node33</title>
<path fill="none" stroke="midnightblue" d="M62.1156,-630C77.0813,-630 94.7488,-630 110.756,-630"/>
<polygon fill="midnightblue" stroke="midnightblue" points="61.758,-626.5 51.758,-630 61.758,-633.5 61.758,-626.5"/>
</g>
<!-- Node34 -->
<g id="node34" class="node"><title>Node34</title>
<g id="a_node34"><a xlink:href="class_i_v_keyboard_control.html" target="_top" xlink:title="Vectorial keyboard control. ">
<polygon fill="white" stroke="black" points="108.5,-582.5 108.5,-601.5 207.5,-601.5 207.5,-582.5 108.5,-582.5"/>
<text text-anchor="middle" x="158" y="-589.5" font-family="Helvetica,sans-Serif" font-size="10.00">IVKeyboardControl</text>
</a>
</g>
</g>
<!-- Node1&#45;&gt;Node34 -->
<g id="edge33" class="edge"><title>Node1&#45;&gt;Node34</title>
<path fill="none" stroke="midnightblue" d="M61.3875,-619.07C70.056,-616.375 79.3554,-613.536 88,-611 98.8496,-607.817 110.705,-604.497 121.479,-601.538"/>
<polygon fill="midnightblue" stroke="midnightblue" points="60.0761,-615.813 51.5782,-622.14 62.1672,-622.493 60.0761,-615.813"/>
</g>
<!-- Node35 -->
<g id="node35" class="node"><title>Node35</title>
<g id="a_node35"><a xlink:href="class_i_v_scope_control.html" target="_top" xlink:title="Vectorial multichannel capable oscilloscope control. ">
<polygon fill="white" stroke="black" points="88,-533 88,-563 228,-563 228,-533 88,-533"/>
<text text-anchor="start" x="96" y="-551" font-family="Helvetica,sans-Serif" font-size="10.00">IVScopeControl&lt; MAXNC,</text>
<text text-anchor="middle" x="158" y="-540" font-family="Helvetica,sans-Serif" font-size="10.00"> MAXBUF, QUEUE_SIZE &gt;</text>
</a>
</g>
</g>
<!-- Node1&#45;&gt;Node35 -->
<g id="edge34" class="edge"><title>Node1&#45;&gt;Node35</title>
<path fill="none" stroke="midnightblue" d="M41.8963,-612.745C53.4259,-600.281 70.3581,-583.806 88,-573 94.0845,-569.273 100.809,-565.981 107.602,-563.111"/>
<polygon fill="midnightblue" stroke="midnightblue" points="39.2273,-610.479 35.1467,-620.256 44.434,-615.158 39.2273,-610.479"/>
</g>
<!-- Node36 -->
<g id="node36" class="node"><title>Node36</title>
<g id="a_node36"><a xlink:href="class_i_v_track_control_base.html" target="_top" xlink:title="A base class for mult&#45;strip/track controls, such as multi&#45;sliders, meters. ">
<polygon fill="white" stroke="red" points="105.5,-494.5 105.5,-513.5 210.5,-513.5 210.5,-494.5 105.5,-494.5"/>
<text text-anchor="middle" x="158" y="-501.5" font-family="Helvetica,sans-Serif" font-size="10.00">IVTrackControlBase</text>
</a>
</g>
</g>
<!-- Node1&#45;&gt;Node36 -->
<g id="edge35" class="edge"><title>Node1&#45;&gt;Node36</title>
<path fill="none" stroke="midnightblue" d="M33.029,-610.771C41.4927,-586.912 59.1749,-546.62 88,-524 93.5927,-519.611 100.116,-516.185 106.877,-513.511"/>
<polygon fill="midnightblue" stroke="midnightblue" points="29.6428,-609.861 29.782,-620.455 36.2796,-612.086 29.6428,-609.861"/>
</g>
<!-- Node37 -->
<g id="node37" class="node"><title>Node37</title>
<g id="a_node37"><a xlink:href="class_i_v_x_y_pad_control.html" target="_top" xlink:title="IVXYPadControl">
<polygon fill="white" stroke="black" points="113.5,-456.5 113.5,-475.5 202.5,-475.5 202.5,-456.5 113.5,-456.5"/>
<text text-anchor="middle" x="158" y="-463.5" font-family="Helvetica,sans-Serif" font-size="10.00">IVXYPadControl</text>
</a>
</g>
</g>
<!-- Node1&#45;&gt;Node37 -->
<g id="edge36" class="edge"><title>Node1&#45;&gt;Node37</title>
<path fill="none" stroke="midnightblue" d="M29.7695,-610.095C35.19,-578.795 50.1683,-518.224 88,-485 95.0953,-478.769 104.059,-474.563 113.157,-471.729"/>
<polygon fill="midnightblue" stroke="midnightblue" points="26.2769,-609.774 28.1803,-620.197 33.1919,-610.862 26.2769,-609.774"/>
</g>
<!-- Node38 -->
<g id="node38" class="node"><title>Node38</title>
<g id="a_node38"><a xlink:href="class_test_animation_control.html" target="_top" xlink:title="Control to test animation. ">
<polygon fill="white" stroke="black" points="102.5,-418.5 102.5,-437.5 213.5,-437.5 213.5,-418.5 102.5,-418.5"/>
<text text-anchor="middle" x="158" y="-425.5" font-family="Helvetica,sans-Serif" font-size="10.00">TestAnimationControl</text>
</a>
</g>
</g>
<!-- Node1&#45;&gt;Node38 -->
<g id="edge37" class="edge"><title>Node1&#45;&gt;Node38</title>
<path fill="none" stroke="midnightblue" d="M27.7424,-610.305C30.2423,-572.929 41.0929,-491.483 88,-447 92.1472,-443.067 97.0319,-439.934 102.255,-437.441"/>
<polygon fill="midnightblue" stroke="midnightblue" points="24.2416,-610.228 27.204,-620.4 31.2317,-610.6 24.2416,-610.228"/>
</g>
<!-- Node39 -->
<g id="node39" class="node"><title>Node39</title>
<g id="a_node39"><a xlink:href="class_test_color_control.html" target="_top" xlink:title="Control to colors. ">
<polygon fill="white" stroke="black" points="112.5,-380.5 112.5,-399.5 203.5,-399.5 203.5,-380.5 112.5,-380.5"/>
<text text-anchor="middle" x="158" y="-387.5" font-family="Helvetica,sans-Serif" font-size="10.00">TestColorControl</text>
</a>
</g>
</g>
<!-- Node1&#45;&gt;Node39 -->
<g id="edge38" class="edge"><title>Node1&#45;&gt;Node39</title>
<path fill="none" stroke="midnightblue" d="M26.3925,-610.192C26.2043,-567.244 32.038,-464.928 88,-409 94.5914,-402.413 103.243,-398.054 112.182,-395.184"/>
<polygon fill="midnightblue" stroke="midnightblue" points="22.8968,-610.486 26.5622,-620.427 29.8959,-610.37 22.8968,-610.486"/>
</g>
<!-- Node40 -->
<g id="node40" class="node"><title>Node40</title>
<g id="a_node40"><a xlink:href="class_test_cursor_control.html" target="_top" xlink:title="Control to test changing the platform cursor. ">
<polygon fill="white" stroke="black" points="109.5,-342.5 109.5,-361.5 206.5,-361.5 206.5,-342.5 109.5,-342.5"/>
<text text-anchor="middle" x="158" y="-349.5" font-family="Helvetica,sans-Serif" font-size="10.00">TestCursorControl</text>
</a>
</g>
</g>
<!-- Node1&#45;&gt;Node40 -->
<g id="edge39" class="edge"><title>Node1&#45;&gt;Node40</title>
<path fill="none" stroke="midnightblue" d="M29.0564,-610.265C35.1086,-555.902 54.5638,-405.711 88,-371 93.7754,-365.004 101.254,-360.846 109.149,-357.973"/>
<polygon fill="midnightblue" stroke="midnightblue" points="25.5629,-610.016 27.9681,-620.335 32.5224,-610.769 25.5629,-610.016"/>
</g>
<!-- Node41 -->
<g id="node41" class="node"><title>Node41</title>
<g id="a_node41"><a xlink:href="class_test_draw_context_control.html" target="_top" xlink:title="Control to test obtaining a drawing API (NanoVG, LICE, Cairo, AGG etc) context and using that API wit...">
<polygon fill="white" stroke="black" points="95.5,-304.5 95.5,-323.5 220.5,-323.5 220.5,-304.5 95.5,-304.5"/>
<text text-anchor="middle" x="158" y="-311.5" font-family="Helvetica,sans-Serif" font-size="10.00">TestDrawContextControl</text>
</a>
</g>
</g>
<!-- Node1&#45;&gt;Node41 -->
<g id="edge40" class="edge"><title>Node1&#45;&gt;Node41</title>
<path fill="none" stroke="midnightblue" d="M28.4176,-610.176C33.0844,-550.428 49.899,-373.708 88,-333 91.566,-329.19 95.8192,-326.119 100.438,-323.646"/>
<polygon fill="midnightblue" stroke="midnightblue" points="24.9234,-609.968 27.6642,-620.202 31.9037,-610.493 24.9234,-609.968"/>
</g>
<!-- Node42 -->
<g id="node42" class="node"><title>Node42</title>
<g id="a_node42"><a xlink:href="class_test_drop_shadow_control.html" target="_top" xlink:title="Control to test layer drop shadows. ">
<polygon fill="white" stroke="black" points="96,-266.5 96,-285.5 220,-285.5 220,-266.5 96,-266.5"/>
<text text-anchor="middle" x="158" y="-273.5" font-family="Helvetica,sans-Serif" font-size="10.00">TestDropShadowControl</text>
</a>
</g>
</g>
<!-- Node1&#45;&gt;Node42 -->
<g id="edge41" class="edge"><title>Node1&#45;&gt;Node42</title>
<path fill="none" stroke="midnightblue" d="M27.9095,-610.234C31.282,-545.572 45.1743,-341.798 88,-295 91.523,-291.15 95.7473,-288.052 100.348,-285.563"/>
<polygon fill="midnightblue" stroke="midnightblue" points="24.4094,-610.153 27.4118,-620.313 31.4008,-610.498 24.4094,-610.153"/>
</g>
<!-- Node43 -->
<g id="node43" class="node"><title>Node43</title>
<g id="a_node43"><a xlink:href="class_test_font_control.html" target="_top" xlink:title="Control to test drawing fonts. ">
<polygon fill="white" stroke="black" points="114.5,-228.5 114.5,-247.5 201.5,-247.5 201.5,-228.5 114.5,-228.5"/>
<text text-anchor="middle" x="158" y="-235.5" font-family="Helvetica,sans-Serif" font-size="10.00">TestFontControl</text>
</a>
</g>
</g>
<!-- Node1&#45;&gt;Node43 -->
<g id="edge42" class="edge"><title>Node1&#45;&gt;Node43</title>
<path fill="none" stroke="midnightblue" d="M27.5047,-610.281C29.678,-540.98 40.4279,-309.934 88,-257 94.8103,-249.422 104.337,-244.749 114.142,-241.898"/>
<polygon fill="midnightblue" stroke="midnightblue" points="24.0058,-610.196 27.2166,-620.293 31.0029,-610.397 24.0058,-610.196"/>
</g>
<!-- Node44 -->
<g id="node44" class="node"><title>Node44</title>
<g id="a_node44"><a xlink:href="class_test_image_control.html" target="_top" xlink:title="Control to test drawing bitmaps. ">
<polygon fill="white" stroke="black" points="110.5,-190.5 110.5,-209.5 205.5,-209.5 205.5,-190.5 110.5,-190.5"/>
<text text-anchor="middle" x="158" y="-197.5" font-family="Helvetica,sans-Serif" font-size="10.00">TestImageControl</text>
</a>
</g>
</g>
<!-- Node1&#45;&gt;Node44 -->
<g id="edge43" class="edge"><title>Node1&#45;&gt;Node44</title>
<path fill="none" stroke="midnightblue" d="M27.1759,-610.224C28.2362,-536.391 35.6855,-278.082 88,-219 93.9305,-212.302 101.983,-207.869 110.495,-204.956"/>
<polygon fill="midnightblue" stroke="midnightblue" points="23.6737,-610.39 27.0547,-620.431 30.6732,-610.474 23.6737,-610.39"/>
</g>
<!-- Node45 -->
<g id="node45" class="node"><title>Node45</title>
<g id="a_node45"><a xlink:href="class_test_keyboard_control.html" target="_top" xlink:title="Control to test keyboard input. ">
<polygon fill="white" stroke="black" points="103.5,-152.5 103.5,-171.5 212.5,-171.5 212.5,-152.5 103.5,-152.5"/>
<text text-anchor="middle" x="158" y="-159.5" font-family="Helvetica,sans-Serif" font-size="10.00">TestKeyboardControl</text>
</a>
</g>
</g>
<!-- Node1&#45;&gt;Node45 -->
<g id="edge44" class="edge"><title>Node1&#45;&gt;Node45</title>
<path fill="none" stroke="midnightblue" d="M26.9,-609.935C26.9211,-531.427 30.9834,-246.197 88,-181 92.2533,-176.136 97.6256,-172.465 103.487,-169.701"/>
<polygon fill="midnightblue" stroke="midnightblue" points="23.4008,-610.341 26.9221,-620.333 30.4007,-610.326 23.4008,-610.341"/>
</g>
<!-- Node46 -->
<g id="node46" class="node"><title>Node46</title>
<g id="a_node46"><a xlink:href="class_test_shadow_gradient_control.html" target="_top" xlink:title="Control to test drawing shadows with gradients. ">
<polygon fill="white" stroke="black" points="88,-114.5 88,-133.5 228,-133.5 228,-114.5 88,-114.5"/>
<text text-anchor="middle" x="158" y="-121.5" font-family="Helvetica,sans-Serif" font-size="10.00">TestShadowGradientControl</text>
</a>
</g>
</g>
<!-- Node1&#45;&gt;Node46 -->
<g id="edge45" class="edge"><title>Node1&#45;&gt;Node46</title>
<path fill="none" stroke="midnightblue" d="M26.6617,-609.852C25.6888,-527.103 26.2192,-214.392 88,-143 91.3335,-139.148 95.3692,-136.042 99.7965,-133.543"/>
<polygon fill="midnightblue" stroke="midnightblue" points="23.1688,-610.386 26.8091,-620.336 30.1681,-610.287 23.1688,-610.386"/>
</g>
<!-- Node47 -->
<g id="node47" class="node"><title>Node47</title>
<g id="a_node47"><a xlink:href="class_test_size_control.html" target="_top" xlink:title="Control to display the size of a region. ">
<polygon fill="white" stroke="black" points="114.5,-76.5 114.5,-95.5 201.5,-95.5 201.5,-76.5 114.5,-76.5"/>
<text text-anchor="middle" x="158" y="-83.5" font-family="Helvetica,sans-Serif" font-size="10.00">TestSizeControl</text>
</a>
</g>
</g>
<!-- Node1&#45;&gt;Node47 -->
<g id="edge46" class="edge"><title>Node1&#45;&gt;Node47</title>
<path fill="none" stroke="midnightblue" d="M27.9962,-610.35C32.7641,-519.644 54.4174,-144.159 88,-105 94.7135,-97.1717 104.327,-92.4223 114.254,-89.5783"/>
<polygon fill="midnightblue" stroke="midnightblue" points="24.4989,-610.209 27.4775,-620.377 31.4895,-610.571 24.4989,-610.209"/>
</g>
<!-- Node48 -->
<g id="node48" class="node"><title>Node48</title>
<g id="a_node48"><a xlink:href="class_test_s_v_g_control.html" target="_top" xlink:title="Control to test drawing SVGs. ">
<polygon fill="white" stroke="black" points="113.5,-38.5 113.5,-57.5 202.5,-57.5 202.5,-38.5 113.5,-38.5"/>
<text text-anchor="middle" x="158" y="-45.5" font-family="Helvetica,sans-Serif" font-size="10.00">TestSVGControl</text>
</a>
</g>
</g>
<!-- Node1&#45;&gt;Node48 -->
<g id="edge47" class="edge"><title>Node1&#45;&gt;Node48</title>
<path fill="none" stroke="midnightblue" d="M27.8438,-610.134C32.0541,-515.048 52.0312,-109.272 88,-67 94.5221,-59.335 103.825,-54.6184 113.495,-51.7517"/>
<polygon fill="midnightblue" stroke="midnightblue" points="24.3463,-610.001 27.4085,-620.144 31.3397,-610.306 24.3463,-610.001"/>
</g>
<!-- Node49 -->
<g id="node49" class="node"><title>Node49</title>
<g id="a_node49"><a xlink:href="class_test_text_control.html" target="_top" xlink:title="Control to test drawing text. ">
<polygon fill="white" stroke="black" points="114.5,-0.5 114.5,-19.5 201.5,-19.5 201.5,-0.5 114.5,-0.5"/>
<text text-anchor="middle" x="158" y="-7.5" font-family="Helvetica,sans-Serif" font-size="10.00">TestTextControl</text>
</a>
</g>
</g>
<!-- Node1&#45;&gt;Node49 -->
<g id="edge48" class="edge"><title>Node1&#45;&gt;Node49</title>
<path fill="none" stroke="midnightblue" d="M27.6915,-610.375C31.332,-511.893 49.5821,-74.4614 88,-29 94.6565,-21.1231 104.25,-16.3567 114.176,-13.5118"/>
<polygon fill="midnightblue" stroke="midnightblue" points="24.1916,-610.314 27.3275,-620.434 31.187,-610.567 24.1916,-610.314"/>
</g>
<!-- Node4 -->
<g id="node4" class="node"><title>Node4</title>
<g id="a_node4"><a xlink:href="class_i_b_switch_control.html" target="_top" xlink:title="A bitmap switch control. ">
<polygon fill="white" stroke="black" points="287,-1228.5 287,-1247.5 375,-1247.5 375,-1228.5 287,-1228.5"/>
<text text-anchor="middle" x="331" y="-1235.5" font-family="Helvetica,sans-Serif" font-size="10.00">IBSwitchControl</text>
</a>
</g>
</g>
<!-- Node3&#45;&gt;Node4 -->
<g id="edge3" class="edge"><title>Node3&#45;&gt;Node4</title>
<path fill="none" stroke="midnightblue" d="M209.034,-1211.12C233.822,-1216.63 263.444,-1223.21 287.17,-1228.48"/>
<polygon fill="midnightblue" stroke="midnightblue" points="209.613,-1207.66 199.092,-1208.91 208.094,-1214.5 209.613,-1207.66"/>
</g>
<!-- Node6 -->
<g id="node6" class="node"><title>Node6</title>
<g id="a_node6"><a xlink:href="class_i_b_button_control.html" target="_top" xlink:title="A bitmap button/momentary switch control. ">
<polygon fill="white" stroke="black" points="288,-1190.5 288,-1209.5 374,-1209.5 374,-1190.5 288,-1190.5"/>
<text text-anchor="middle" x="331" y="-1197.5" font-family="Helvetica,sans-Serif" font-size="10.00">IBButtonControl</text>
</a>
</g>
</g>
<!-- Node5&#45;&gt;Node6 -->
<g id="edge5" class="edge"><title>Node5&#45;&gt;Node6</title>
<path fill="none" stroke="midnightblue" d="M211.963,-1173.77C236.334,-1179.19 264.852,-1185.52 287.751,-1190.61"/>
<polygon fill="midnightblue" stroke="midnightblue" points="212.672,-1170.34 202.151,-1171.59 211.153,-1177.18 212.672,-1170.34"/>
</g>
<!-- Node7 -->
<g id="node7" class="node"><title>Node7</title>
<g id="a_node7"><a xlink:href="class_i_v_button_control.html" target="_top" xlink:title="A vector button/momentary switch control. ">
<polygon fill="white" stroke="black" points="288,-1152.5 288,-1171.5 374,-1171.5 374,-1152.5 288,-1152.5"/>
<text text-anchor="middle" x="331" y="-1159.5" font-family="Helvetica,sans-Serif" font-size="10.00">IVButtonControl</text>
</a>
</g>
</g>
<!-- Node5&#45;&gt;Node7 -->
<g id="edge6" class="edge"><title>Node5&#45;&gt;Node7</title>
<path fill="none" stroke="midnightblue" d="M219.541,-1162C242.1,-1162 267.199,-1162 287.765,-1162"/>
<polygon fill="midnightblue" stroke="midnightblue" points="219.381,-1158.5 209.381,-1162 219.381,-1165.5 219.381,-1158.5"/>
</g>
<!-- Node11 -->
<g id="node11" class="node"><title>Node11</title>
<g id="a_node11"><a xlink:href="class_test_dir_browse_control.html" target="_top" xlink:title="Control to test IDirBrowseControlBase. ">
<polygon fill="white" stroke="black" points="274.5,-1114.5 274.5,-1133.5 387.5,-1133.5 387.5,-1114.5 274.5,-1114.5"/>
<text text-anchor="middle" x="331" y="-1121.5" font-family="Helvetica,sans-Serif" font-size="10.00">TestDirBrowseControl</text>
</a>
</g>
</g>
<!-- Node10&#45;&gt;Node11 -->
<g id="edge10" class="edge"><title>Node10&#45;&gt;Node11</title>
<path fill="none" stroke="midnightblue" d="M216.588,-1061.22C220.558,-1062.92 224.404,-1064.84 228,-1067 247.947,-1078.97 244.122,-1092.91 264,-1105 270.316,-1108.84 277.445,-1111.94 284.621,-1114.42"/>
<polygon fill="midnightblue" stroke="midnightblue" points="217.756,-1057.92 207.165,-1057.61 215.254,-1064.45 217.756,-1057.92"/>
</g>
<!-- Node15 -->
<g id="node15" class="node"><title>Node15</title>
<g id="a_node15"><a xlink:href="class_i_b_knob_control.html" target="_top" xlink:title="A bitmap knob/dial control that draws a frame from a stacked bitmap. ">
<polygon fill="white" stroke="red" points="291,-1076.5 291,-1095.5 371,-1095.5 371,-1076.5 291,-1076.5"/>
<text text-anchor="middle" x="331" y="-1083.5" font-family="Helvetica,sans-Serif" font-size="10.00">IBKnobControl</text>
</a>
</g>
</g>
<!-- Node14&#45;&gt;Node15 -->
<g id="edge14" class="edge"><title>Node14&#45;&gt;Node15</title>
<path fill="none" stroke="midnightblue" d="M215.348,-944.139C219.977,-946.514 224.292,-949.428 228,-953 266.263,-989.866 225.952,-1029.91 264,-1067 271.258,-1074.07 280.972,-1078.55 290.711,-1081.36"/>
<polygon fill="midnightblue" stroke="midnightblue" points="216.708,-940.914 206.137,-940.206 213.959,-947.352 216.708,-940.914"/>
</g>
<!-- Node16 -->
<g id="node16" class="node"><title>Node16</title>
<g id="a_node16"><a xlink:href="class_i_s_v_g_knob.html" target="_top" xlink:title="A vector knob/dial control which rotates an SVG image. ">
<polygon fill="white" stroke="black" points="299.5,-1038.5 299.5,-1057.5 362.5,-1057.5 362.5,-1038.5 299.5,-1038.5"/>
<text text-anchor="middle" x="331" y="-1045.5" font-family="Helvetica,sans-Serif" font-size="10.00">ISVGKnob</text>
</a>
</g>
</g>
<!-- Node14&#45;&gt;Node16 -->
<g id="edge15" class="edge"><title>Node14&#45;&gt;Node16</title>
<path fill="none" stroke="midnightblue" d="M215.621,-945.062C220.068,-947.251 224.271,-949.869 228,-953 256.621,-977.037 235.519,-1004.8 264,-1029 273.813,-1037.34 287.093,-1042.02 299.168,-1044.65"/>
<polygon fill="midnightblue" stroke="midnightblue" points="216.806,-941.764 206.229,-941.147 214.112,-948.225 216.806,-941.764"/>
</g>
<!-- Node17 -->
<g id="node17" class="node"><title>Node17</title>
<g id="a_node17"><a xlink:href="class_i_v_knob_control.html" target="_top" xlink:title="A vector knob control drawn using graphics primitves. ">
<polygon fill="white" stroke="black" points="291,-1000.5 291,-1019.5 371,-1019.5 371,-1000.5 291,-1000.5"/>
<text text-anchor="middle" x="331" y="-1007.5" font-family="Helvetica,sans-Serif" font-size="10.00">IVKnobControl</text>
</a>
</g>
</g>
<!-- Node14&#45;&gt;Node17 -->
<g id="edge16" class="edge"><title>Node14&#45;&gt;Node17</title>
<path fill="none" stroke="midnightblue" d="M215.643,-946.816C219.947,-948.62 224.12,-950.671 228,-953 247.947,-964.972 244.122,-978.912 264,-991 272.15,-995.956 281.652,-999.67 290.864,-1002.43"/>
<polygon fill="midnightblue" stroke="midnightblue" points="216.669,-943.463 206.076,-943.246 214.221,-950.021 216.669,-943.463"/>
</g>
<!-- Node18 -->
<g id="node18" class="node"><title>Node18</title>
<g id="a_node18"><a xlink:href="class_test_arc_control.html" target="_top" xlink:title="Control to test drawing arcs. ">
<polygon fill="white" stroke="black" points="289.5,-962.5 289.5,-981.5 372.5,-981.5 372.5,-962.5 289.5,-962.5"/>
<text text-anchor="middle" x="331" y="-969.5" font-family="Helvetica,sans-Serif" font-size="10.00">TestArcControl</text>
</a>
</g>
</g>
<!-- Node14&#45;&gt;Node18 -->
<g id="edge17" class="edge"><title>Node14&#45;&gt;Node18</title>
<path fill="none" stroke="midnightblue" d="M212.153,-945.812C237.006,-951.335 266.137,-957.808 289.218,-962.937"/>
<polygon fill="midnightblue" stroke="midnightblue" points="212.672,-942.342 202.151,-943.589 211.153,-949.175 212.672,-942.342"/>
</g>
<!-- Node19 -->
<g id="node19" class="node"><title>Node19</title>
<g id="a_node19"><a xlink:href="class_test_blend_control.html" target="_top" xlink:title="Control to test blend methods. ">
<polygon fill="white" stroke="black" points="285,-924.5 285,-943.5 377,-943.5 377,-924.5 285,-924.5"/>
<text text-anchor="middle" x="331" y="-931.5" font-family="Helvetica,sans-Serif" font-size="10.00">TestBlendControl</text>
</a>
</g>
</g>
<!-- Node14&#45;&gt;Node19 -->
<g id="edge18" class="edge"><title>Node14&#45;&gt;Node19</title>
<path fill="none" stroke="midnightblue" d="M216.202,-934C238.517,-934 263.731,-934 284.743,-934"/>
<polygon fill="midnightblue" stroke="midnightblue" points="216.179,-930.5 206.179,-934 216.179,-937.5 216.179,-930.5"/>
</g>
<!-- Node20 -->
<g id="node20" class="node"><title>Node20</title>
<g id="a_node20"><a xlink:href="class_test_gradient_control.html" target="_top" xlink:title="Control to test drawing gradients with path based drawing backends. ">
<polygon fill="white" stroke="black" points="279,-886.5 279,-905.5 383,-905.5 383,-886.5 279,-886.5"/>
<text text-anchor="middle" x="331" y="-893.5" font-family="Helvetica,sans-Serif" font-size="10.00">TestGradientControl</text>
</a>
</g>
</g>
<!-- Node14&#45;&gt;Node20 -->
<g id="edge19" class="edge"><title>Node14&#45;&gt;Node20</title>
<path fill="none" stroke="midnightblue" d="M212.209,-922.176C236.317,-916.818 264.44,-910.569 287.16,-905.52"/>
<polygon fill="midnightblue" stroke="midnightblue" points="211.153,-918.825 202.151,-924.411 212.672,-925.658 211.153,-918.825"/>
</g>
<!-- Node21 -->
<g id="node21" class="node"><title>Node21</title>
<g id="a_node21"><a xlink:href="class_test_layer_control.html" target="_top" xlink:title="Control to test IGraphics layers. ">
<polygon fill="white" stroke="black" points="285,-848.5 285,-867.5 377,-867.5 377,-848.5 285,-848.5"/>
<text text-anchor="middle" x="331" y="-855.5" font-family="Helvetica,sans-Serif" font-size="10.00">TestLayerControl</text>
</a>
</g>
</g>
<!-- Node14&#45;&gt;Node21 -->
<g id="edge20" class="edge"><title>Node14&#45;&gt;Node21</title>
<path fill="none" stroke="midnightblue" d="M215.643,-921.184C219.947,-919.38 224.12,-917.329 228,-915 247.947,-903.028 244.122,-889.088 264,-877 270.418,-873.097 277.675,-869.964 284.968,-867.459"/>
<polygon fill="midnightblue" stroke="midnightblue" points="214.221,-917.979 206.076,-924.754 216.669,-924.537 214.221,-917.979"/>
</g>
<!-- Node22 -->
<g id="node22" class="node"><title>Node22</title>
<g id="a_node22"><a xlink:href="class_test_m_p_s_control.html" target="_top" xlink:title="Control to test IGraphicsNanoVG with Metal Performance Shaders. ">
<polygon fill="white" stroke="black" points="286.5,-810.5 286.5,-829.5 375.5,-829.5 375.5,-810.5 286.5,-810.5"/>
<text text-anchor="middle" x="331" y="-817.5" font-family="Helvetica,sans-Serif" font-size="10.00">TestMPSControl</text>
</a>
</g>
</g>
<!-- Node14&#45;&gt;Node22 -->
<g id="edge21" class="edge"><title>Node14&#45;&gt;Node22</title>
<path fill="none" stroke="midnightblue" d="M215.621,-922.938C220.068,-920.749 224.271,-918.131 228,-915 256.621,-890.963 235.519,-863.202 264,-839 270.36,-833.595 278.177,-829.726 286.178,-826.956"/>
<polygon fill="midnightblue" stroke="midnightblue" points="214.112,-919.775 206.229,-926.853 216.806,-926.236 214.112,-919.775"/>
</g>
<!-- Node23 -->
<g id="node23" class="node"><title>Node23</title>
<g id="a_node23"><a xlink:href="class_test_multi_path_control.html" target="_top" xlink:title="Control to test drawing paths in path&#45;based drawing backends. ">
<polygon fill="white" stroke="black" points="276.5,-772.5 276.5,-791.5 385.5,-791.5 385.5,-772.5 276.5,-772.5"/>
<text text-anchor="middle" x="331" y="-779.5" font-family="Helvetica,sans-Serif" font-size="10.00">TestMultiPathControl</text>
</a>
</g>
</g>
<!-- Node14&#45;&gt;Node23 -->
<g id="edge22" class="edge"><title>Node14&#45;&gt;Node23</title>
<path fill="none" stroke="midnightblue" d="M215.348,-923.861C219.977,-921.486 224.292,-918.572 228,-915 266.263,-878.134 225.952,-838.087 264,-801 267.928,-797.172 272.575,-794.105 277.556,-791.651"/>
<polygon fill="midnightblue" stroke="midnightblue" points="213.959,-920.648 206.137,-927.794 216.708,-927.086 213.959,-920.648"/>
</g>
<!-- Node24 -->
<g id="node24" class="node"><title>Node24</title>
<g id="a_node24"><a xlink:href="class_test_poly_control.html" target="_top" xlink:title="Control to test drawing polygons. ">
<polygon fill="white" stroke="black" points="287.5,-734.5 287.5,-753.5 374.5,-753.5 374.5,-734.5 287.5,-734.5"/>
<text text-anchor="middle" x="331" y="-741.5" font-family="Helvetica,sans-Serif" font-size="10.00">TestPolyControl</text>
</a>
</g>
</g>
<!-- Node14&#45;&gt;Node24 -->
<g id="edge23" class="edge"><title>Node14&#45;&gt;Node24</title>
<path fill="none" stroke="midnightblue" d="M215.427,-924.249C220.076,-921.798 224.373,-918.76 228,-915 276.195,-865.03 216.095,-813.248 264,-763 270.253,-756.441 278.61,-752.102 287.271,-749.243"/>
<polygon fill="midnightblue" stroke="midnightblue" points="213.921,-921.087 206.137,-928.275 216.704,-927.51 213.921,-921.087"/>
</g>
<!-- Node25 -->
<g id="node25" class="node"><title>Node25</title>
<g id="a_node25"><a xlink:href="class_test_text_orientation_control.html" target="_top" xlink:title="Control to test drawing text with orientation. ">
<polygon fill="white" stroke="black" points="264,-696.5 264,-715.5 398,-715.5 398,-696.5 264,-696.5"/>
<text text-anchor="middle" x="331" y="-703.5" font-family="Helvetica,sans-Serif" font-size="10.00">TestTextOrientationControl</text>
</a>
</g>
</g>
<!-- Node14&#45;&gt;Node25 -->
<g id="edge24" class="edge"><title>Node14&#45;&gt;Node25</title>
<path fill="none" stroke="midnightblue" d="M215.407,-924.527C220.097,-922.023 224.408,-918.897 228,-915 286.249,-851.802 206.118,-788.534 264,-725 267.533,-721.122 271.802,-718.015 276.448,-715.53"/>
<polygon fill="midnightblue" stroke="midnightblue" points="213.784,-921.416 206.009,-928.613 216.575,-927.835 213.784,-921.416"/>
</g>
</g>
</svg>
