<?xml version="1.0" encoding="UTF-8" standalone="no"?>
<!DOCTYPE svg PUBLIC "-//W3C//DTD SVG 1.1//EN"
 "http://www.w3.org/Graphics/SVG/1.1/DTD/svg11.dtd">
<!-- Generated by graphviz version 2.36.0 (20140111.2315)
 -->
<!-- Title: IKnobControlBase Pages: 1 -->
<!--zoomable 446 -->
<svg id="main" version="1.1" xmlns="http://www.w3.org/2000/svg" xmlns:xlink="http://www.w3.org/1999/xlink" xml:space="preserve" onload="init(evt)">
<style type="text/css"><![CDATA[
.edge:hover path { stroke: red; }
.edge:hover polygon { stroke: red; fill: red; }
]]></style>
<script type="text/javascript"><![CDATA[
var edges = document.getElementsByTagName('g');
if (edges && edges.length) {
  for (var i=0;i<edges.length;i++) {
    if (edges[i].id.substr(0,4)=='edge') {
      edges[i].setAttribute('class','edge');
    }
  }
}
]]></script>
        <defs>
                <circle id="rim" cx="0" cy="0" r="7"/>
                <circle id="rim2" cx="0" cy="0" r="3.5"/>
                <g id="zoomPlus">
                        <use xlink:href="#rim" fill="#404040">
                                <set attributeName="fill" to="#808080" begin="zoomplus.mouseover" end="zoomplus.mouseout"/>
                        </use>
                        <path d="M-4,0h8M0,-4v8" fill="none" stroke="white" stroke-width="1.5" pointer-events="none"/>
                </g>
                <g id="zoomMin">
                        <use xlink:href="#rim" fill="#404040">
                                <set attributeName="fill" to="#808080" begin="zoomminus.mouseover" end="zoomminus.mouseout"/>
                        </use>
                        <path d="M-4,0h8" fill="none" stroke="white" stroke-width="1.5" pointer-events="none"/>
                </g>
                <g id="dirArrow">
                        <path fill="none" stroke="white" stroke-width="1.5" d="M0,-3.0v7 M-2.5,-0.5L0,-3.0L2.5,-0.5"/>
                </g>
               <g id="resetDef">
                       <use xlink:href="#rim2" fill="#404040">
                               <set attributeName="fill" to="#808080" begin="reset.mouseover" end="reset.mouseout"/>
                       </use>
               </g>
        </defs>

<script type="text/javascript">
var viewWidth = 512;
var viewHeight = 446;
var sectionId = 'dynsection-0';
</script>
<script xlink:href="svgpan.js"/>
<svg id="graph" class="graph">
<g id="viewport">
<title>IKnobControlBase</title>
<polygon fill="white" stroke="none" points="-4,4 -4,-442 508,-442 508,4 -4,4"/>
<!-- Node1 -->
<g id="node1" class="node"><title>Node1</title>
<polygon fill="#bfbfbf" stroke="black" points="88,-209.5 88,-228.5 184,-228.5 184,-209.5 88,-209.5"/>
<text text-anchor="middle" x="136" y="-216.5" font-family="Helvetica,sans-Serif" font-size="10.00">IKnobControlBase</text>
</g>
<!-- Node3 -->
<g id="node3" class="node"><title>Node3</title>
<g id="a_node3"><a xlink:href="class_i_b_knob_control.html" target="_top" xlink:title="A bitmap knob/dial control that draws a frame from a stacked bitmap. ">
<polygon fill="white" stroke="black" points="247,-418.5 247,-437.5 327,-437.5 327,-418.5 247,-418.5"/>
<text text-anchor="middle" x="287" y="-425.5" font-family="Helvetica,sans-Serif" font-size="10.00">IBKnobControl</text>
</a>
</g>
</g>
<!-- Node1&#45;&gt;Node3 -->
<g id="edge2" class="edge"><title>Node1&#45;&gt;Node3</title>
<path fill="none" stroke="midnightblue" d="M139.924,-238.476C146.733,-276.911 167.273,-362.79 220,-409 227.533,-415.601 237.228,-419.916 246.855,-422.735"/>
<polygon fill="midnightblue" stroke="midnightblue" points="143.37,-237.863 138.291,-228.565 136.463,-239 143.37,-237.863"/>
</g>
<!-- Node5 -->
<g id="node5" class="node"><title>Node5</title>
<g id="a_node5"><a xlink:href="class_i_s_v_g_knob.html" target="_top" xlink:title="A vector knob/dial control which rotates an SVG image. ">
<polygon fill="white" stroke="black" points="255.5,-380.5 255.5,-399.5 318.5,-399.5 318.5,-380.5 255.5,-380.5"/>
<text text-anchor="middle" x="287" y="-387.5" font-family="Helvetica,sans-Serif" font-size="10.00">ISVGKnob</text>
</a>
</g>
</g>
<!-- Node1&#45;&gt;Node5 -->
<g id="edge4" class="edge"><title>Node1&#45;&gt;Node5</title>
<path fill="none" stroke="midnightblue" d="M142.284,-238.533C152.073,-270.97 176.138,-335.845 220,-371 230.048,-379.054 243.365,-383.694 255.404,-386.367"/>
<polygon fill="midnightblue" stroke="midnightblue" points="145.531,-237.161 139.407,-228.515 138.803,-239.093 145.531,-237.161"/>
</g>
<!-- Node6 -->
<g id="node6" class="node"><title>Node6</title>
<g id="a_node6"><a xlink:href="class_i_v_knob_control.html" target="_top" xlink:title="A vector knob control drawn using graphics primitves. ">
<polygon fill="white" stroke="black" points="247,-342.5 247,-361.5 327,-361.5 327,-342.5 247,-342.5"/>
<text text-anchor="middle" x="287" y="-349.5" font-family="Helvetica,sans-Serif" font-size="10.00">IVKnobControl</text>
</a>
</g>
</g>
<!-- Node1&#45;&gt;Node6 -->
<g id="edge5" class="edge"><title>Node1&#45;&gt;Node6</title>
<path fill="none" stroke="midnightblue" d="M145.767,-237.914C158.515,-263.335 184.573,-308.192 220,-333 227.911,-338.54 237.424,-342.476 246.732,-345.269"/>
<polygon fill="midnightblue" stroke="midnightblue" points="148.773,-236.092 141.266,-228.616 142.473,-239.142 148.773,-236.092"/>
</g>
<!-- Node7 -->
<g id="node7" class="node"><title>Node7</title>
<g id="a_node7"><a xlink:href="class_test_arc_control.html" target="_top" xlink:title="Control to test drawing arcs. ">
<polygon fill="white" stroke="black" points="245.5,-304.5 245.5,-323.5 328.5,-323.5 328.5,-304.5 245.5,-304.5"/>
<text text-anchor="middle" x="287" y="-311.5" font-family="Helvetica,sans-Serif" font-size="10.00">TestArcControl</text>
</a>
</g>
</g>
<!-- Node1&#45;&gt;Node7 -->
<g id="edge6" class="edge"><title>Node1&#45;&gt;Node7</title>
<path fill="none" stroke="midnightblue" d="M151.555,-236.372C166.901,-253.622 192.61,-279.649 220,-295 227.801,-299.372 236.696,-302.813 245.374,-305.494"/>
<polygon fill="midnightblue" stroke="midnightblue" points="154.09,-233.953 144.893,-228.694 148.803,-238.541 154.09,-233.953"/>
</g>
<!-- Node8 -->
<g id="node8" class="node"><title>Node8</title>
<g id="a_node8"><a xlink:href="class_test_blend_control.html" target="_top" xlink:title="Control to test blend methods. ">
<polygon fill="white" stroke="black" points="241,-266.5 241,-285.5 333,-285.5 333,-266.5 241,-266.5"/>
<text text-anchor="middle" x="287" y="-273.5" font-family="Helvetica,sans-Serif" font-size="10.00">TestBlendControl</text>
</a>
</g>
</g>
<!-- Node1&#45;&gt;Node8 -->
<g id="edge7" class="edge"><title>Node1&#45;&gt;Node8</title>
<path fill="none" stroke="midnightblue" d="M165.034,-233.101C180.917,-240.767 201.294,-250.069 220,-257 229.28,-260.438 239.481,-263.644 249.029,-266.407"/>
<polygon fill="midnightblue" stroke="midnightblue" points="166.302,-229.825 155.781,-228.575 163.226,-236.113 166.302,-229.825"/>
</g>
<!-- Node9 -->
<g id="node9" class="node"><title>Node9</title>
<g id="a_node9"><a xlink:href="class_test_gradient_control.html" target="_top" xlink:title="Control to test drawing gradients with path based drawing backends. ">
<polygon fill="white" stroke="black" points="235,-228.5 235,-247.5 339,-247.5 339,-228.5 235,-228.5"/>
<text text-anchor="middle" x="287" y="-235.5" font-family="Helvetica,sans-Serif" font-size="10.00">TestGradientControl</text>
</a>
</g>
</g>
<!-- Node1&#45;&gt;Node9 -->
<g id="edge8" class="edge"><title>Node1&#45;&gt;Node9</title>
<path fill="none" stroke="midnightblue" d="M194.179,-226.291C207.541,-227.995 221.69,-229.799 234.775,-231.468"/>
<polygon fill="midnightblue" stroke="midnightblue" points="194.507,-222.805 184.145,-225.012 193.621,-229.749 194.507,-222.805"/>
</g>
<!-- Node10 -->
<g id="node10" class="node"><title>Node10</title>
<g id="a_node10"><a xlink:href="class_test_layer_control.html" target="_top" xlink:title="Control to test IGraphics layers. ">
<polygon fill="white" stroke="black" points="241,-190.5 241,-209.5 333,-209.5 333,-190.5 241,-190.5"/>
<text text-anchor="middle" x="287" y="-197.5" font-family="Helvetica,sans-Serif" font-size="10.00">TestLayerControl</text>
</a>
</g>
</g>
<!-- Node1&#45;&gt;Node10 -->
<g id="edge9" class="edge"><title>Node1&#45;&gt;Node10</title>
<path fill="none" stroke="midnightblue" d="M194.147,-211.713C209.648,-209.736 226.21,-207.624 240.941,-205.746"/>
<polygon fill="midnightblue" stroke="midnightblue" points="193.621,-208.251 184.145,-212.988 194.507,-215.195 193.621,-208.251"/>
</g>
<!-- Node11 -->
<g id="node11" class="node"><title>Node11</title>
<g id="a_node11"><a xlink:href="class_test_m_p_s_control.html" target="_top" xlink:title="Control to test IGraphicsNanoVG with Metal Performance Shaders. ">
<polygon fill="white" stroke="black" points="242.5,-152.5 242.5,-171.5 331.5,-171.5 331.5,-152.5 242.5,-152.5"/>
<text text-anchor="middle" x="287" y="-159.5" font-family="Helvetica,sans-Serif" font-size="10.00">TestMPSControl</text>
</a>
</g>
</g>
<!-- Node1&#45;&gt;Node11 -->
<g id="edge10" class="edge"><title>Node1&#45;&gt;Node11</title>
<path fill="none" stroke="midnightblue" d="M165.034,-204.899C180.917,-197.233 201.294,-187.931 220,-181 229.28,-177.562 239.481,-174.356 249.029,-171.593"/>
<polygon fill="midnightblue" stroke="midnightblue" points="163.226,-201.887 155.781,-209.425 166.302,-208.175 163.226,-201.887"/>
</g>
<!-- Node12 -->
<g id="node12" class="node"><title>Node12</title>
<g id="a_node12"><a xlink:href="class_test_multi_path_control.html" target="_top" xlink:title="Control to test drawing paths in path&#45;based drawing backends. ">
<polygon fill="white" stroke="black" points="232.5,-114.5 232.5,-133.5 341.5,-133.5 341.5,-114.5 232.5,-114.5"/>
<text text-anchor="middle" x="287" y="-121.5" font-family="Helvetica,sans-Serif" font-size="10.00">TestMultiPathControl</text>
</a>
</g>
</g>
<!-- Node1&#45;&gt;Node12 -->
<g id="edge11" class="edge"><title>Node1&#45;&gt;Node12</title>
<path fill="none" stroke="midnightblue" d="M151.555,-201.628C166.901,-184.378 192.61,-158.351 220,-143 226.865,-139.152 234.577,-136.026 242.243,-133.504"/>
<polygon fill="midnightblue" stroke="midnightblue" points="148.803,-199.459 144.893,-209.306 154.09,-204.047 148.803,-199.459"/>
</g>
<!-- Node13 -->
<g id="node13" class="node"><title>Node13</title>
<g id="a_node13"><a xlink:href="class_test_poly_control.html" target="_top" xlink:title="Control to test drawing polygons. ">
<polygon fill="white" stroke="black" points="243.5,-76.5 243.5,-95.5 330.5,-95.5 330.5,-76.5 243.5,-76.5"/>
<text text-anchor="middle" x="287" y="-83.5" font-family="Helvetica,sans-Serif" font-size="10.00">TestPolyControl</text>
</a>
</g>
</g>
<!-- Node1&#45;&gt;Node13 -->
<g id="edge12" class="edge"><title>Node1&#45;&gt;Node13</title>
<path fill="none" stroke="midnightblue" d="M145.767,-200.086C158.515,-174.665 184.573,-129.808 220,-105 226.935,-100.144 235.099,-96.5202 243.279,-93.8184"/>
<polygon fill="midnightblue" stroke="midnightblue" points="142.473,-198.858 141.266,-209.384 148.773,-201.908 142.473,-198.858"/>
</g>
<!-- Node14 -->
<g id="node14" class="node"><title>Node14</title>
<g id="a_node14"><a xlink:href="class_test_text_orientation_control.html" target="_top" xlink:title="Control to test drawing text with orientation. ">
<polygon fill="white" stroke="black" points="220,-38.5 220,-57.5 354,-57.5 354,-38.5 220,-38.5"/>
<text text-anchor="middle" x="287" y="-45.5" font-family="Helvetica,sans-Serif" font-size="10.00">TestTextOrientationControl</text>
</a>
</g>
</g>
<!-- Node1&#45;&gt;Node14 -->
<g id="edge13" class="edge"><title>Node1&#45;&gt;Node14</title>
<path fill="none" stroke="midnightblue" d="M142.284,-199.467C152.073,-167.03 176.138,-102.155 220,-67 224.838,-63.1223 230.434,-60.036 236.28,-57.5796"/>
<polygon fill="midnightblue" stroke="midnightblue" points="138.803,-198.907 139.407,-209.485 145.531,-200.839 138.803,-198.907"/>
</g>
<!-- Node15 -->
<g id="node15" class="node"><title>Node15</title>
<g id="a_node15"><a xlink:href="class_test_text_size_control.html" target="_top" xlink:title="Control to test drawing text with varying size. ">
<polygon fill="white" stroke="black" points="233.5,-0.5 233.5,-19.5 340.5,-19.5 340.5,-0.5 233.5,-0.5"/>
<text text-anchor="middle" x="287" y="-7.5" font-family="Helvetica,sans-Serif" font-size="10.00">TestTextSizeControl</text>
</a>
</g>
</g>
<!-- Node1&#45;&gt;Node15 -->
<g id="edge14" class="edge"><title>Node1&#45;&gt;Node15</title>
<path fill="none" stroke="midnightblue" d="M139.924,-199.524C146.733,-161.089 167.273,-75.21 220,-29 224.394,-25.1491 229.524,-22.0764 234.947,-19.6249"/>
<polygon fill="midnightblue" stroke="midnightblue" points="136.463,-199 138.291,-209.435 143.37,-200.137 136.463,-199"/>
</g>
<!-- Node2 -->
<g id="node2" class="node"><title>Node2</title>
<g id="a_node2"><a xlink:href="class_i_control.html" target="_top" xlink:title="The lowest level base class of an IGraphics control. ">
<polygon fill="white" stroke="black" points="0.5,-209.5 0.5,-228.5 51.5,-228.5 51.5,-209.5 0.5,-209.5"/>
<text text-anchor="middle" x="26" y="-216.5" font-family="Helvetica,sans-Serif" font-size="10.00">IControl</text>
</a>
</g>
</g>
<!-- Node2&#45;&gt;Node1 -->
<g id="edge1" class="edge"><title>Node2&#45;&gt;Node1</title>
<path fill="none" stroke="midnightblue" d="M61.5595,-219C69.8495,-219 78.845,-219 87.6051,-219"/>
<polygon fill="midnightblue" stroke="midnightblue" points="61.5069,-215.5 51.5069,-219 61.5068,-222.5 61.5069,-215.5"/>
</g>
<!-- Node4 -->
<g id="node4" class="node"><title>Node4</title>
<g id="a_node4"><a xlink:href="class_i_b_knob_rotater_control.html" target="_top" xlink:title="A bitmap knob/dial control that rotates an image. ">
<polygon fill="white" stroke="black" points="390.5,-418.5 390.5,-437.5 503.5,-437.5 503.5,-418.5 390.5,-418.5"/>
<text text-anchor="middle" x="447" y="-425.5" font-family="Helvetica,sans-Serif" font-size="10.00">IBKnobRotaterControl</text>
</a>
</g>
</g>
<!-- Node3&#45;&gt;Node4 -->
<g id="edge3" class="edge"><title>Node3&#45;&gt;Node4</title>
<path fill="none" stroke="midnightblue" d="M337.245,-428C354.103,-428 373.077,-428 390.401,-428"/>
<polygon fill="midnightblue" stroke="midnightblue" points="337.056,-424.5 327.056,-428 337.056,-431.5 337.056,-424.5"/>
</g>
</g>
</svg>
        <g id="navigator" transform="translate(0 0)" fill="#404254">
                <rect fill="#f2f5e9" fill-opacity="0.5" stroke="#606060" stroke-width=".5" x="0" y="0" width="60" height="60"/>
                <use id="zoomplus" xlink:href="#zoomPlus" x="17" y="9" onmousedown="handleZoom(evt,'in')"/>
                <use id="zoomminus" xlink:href="#zoomMin" x="42" y="9" onmousedown="handleZoom(evt,'out')"/>
                <use id="reset" xlink:href="#resetDef" x="30" y="36" onmousedown="handleReset()"/>
                <g id="arrowUp" xlink:href="#dirArrow" transform="translate(30 24)" onmousedown="handlePan(0,-1)">
                  <use xlink:href="#rim" fill="#404040">
                        <set attributeName="fill" to="#808080" begin="arrowUp.mouseover" end="arrowUp.mouseout"/>
                  </use>
                  <path fill="none" stroke="white" stroke-width="1.5" d="M0,-3.0v7 M-2.5,-0.5L0,-3.0L2.5,-0.5"/>
                </g>
                <g id="arrowRight" xlink:href="#dirArrow" transform="rotate(90) translate(36 -43)" onmousedown="handlePan(1,0)">
                  <use xlink:href="#rim" fill="#404040">
                        <set attributeName="fill" to="#808080" begin="arrowRight.mouseover" end="arrowRight.mouseout"/>
                  </use>
                  <path fill="none" stroke="white" stroke-width="1.5" d="M0,-3.0v7 M-2.5,-0.5L0,-3.0L2.5,-0.5"/>
                </g>
                <g id="arrowDown" xlink:href="#dirArrow" transform="rotate(180) translate(-30 -48)" onmousedown="handlePan(0,1)">
                  <use xlink:href="#rim" fill="#404040">
                        <set attributeName="fill" to="#808080" begin="arrowDown.mouseover" end="arrowDown.mouseout"/>
                  </use>
                  <path fill="none" stroke="white" stroke-width="1.5" d="M0,-3.0v7 M-2.5,-0.5L0,-3.0L2.5,-0.5"/>
                </g>
                <g id="arrowLeft" xlink:href="#dirArrow" transform="rotate(270) translate(-36 17)" onmousedown="handlePan(-1,0)">
                  <use xlink:href="#rim" fill="#404040">
                        <set attributeName="fill" to="#808080" begin="arrowLeft.mouseover" end="arrowLeft.mouseout"/>
                  </use>
                  <path fill="none" stroke="white" stroke-width="1.5" d="M0,-3.0v7 M-2.5,-0.5L0,-3.0L2.5,-0.5"/>
                </g>
        </g>
        <svg viewBox="0 0 15 15" width="100%" height="30px" preserveAspectRatio="xMaxYMin meet">
         <g id="arrow_out" transform="scale(0.3 0.3)">
          <a xlink:href="class_i_knob_control_base__inherit__graph_org.svg" target="_base">
           <rect id="button" ry="5" rx="5" y="6" x="6" height="38" width="38"
                fill="#f2f5e9" fill-opacity="0.5" stroke="#606060" stroke-width="1.0"/>
           <path id="arrow"
             d="M 11.500037,31.436501 C 11.940474,20.09759 22.043105,11.32322 32.158766,21.979434 L 37.068811,17.246167 C 37.068811,17.246167 37.088388,32 37.088388,32 L 22.160133,31.978069 C 22.160133,31.978069 26.997745,27.140456 26.997745,27.140456 C 18.528582,18.264221 13.291696,25.230495 11.500037,31.436501 z"
             style="fill:#404040;"/>
          </a>
         </g>
        </svg>
</svg>
